<?xml version="1.0" encoding="utf-8"?>
<!-- Generator: Adobe Illustrator 23.0.4, SVG Export Plug-In . SVG Version: 6.00 Build 0)  -->
<svg version="1.1" id="Layer_1" xmlns:serif="http://www.serif.com/"
	 xmlns="http://www.w3.org/2000/svg" xmlns:xlink="http://www.w3.org/1999/xlink" x="0px" y="0px" viewBox="0 0 612 792"
	 style="enable-background:new 0 0 612 792;" xml:space="preserve">
<style type="text/css">
	.st0{fill:#0D0D0D;}
	.st1{font-family:'Arial-BoldMT';}
	.st2{font-size:73.7847px;}
	.st3{fill-rule:evenodd;clip-rule:evenodd;fill:#191970;}
	.st4{fill-rule:evenodd;clip-rule:evenodd;fill:#0D0D0D;}
	.st5{fill-rule:evenodd;clip-rule:evenodd;fill:#808080;}
	.st6{font-size:61.5671px;}
	.st7{font-size:61.5672px;}
</style>
<g transform="matrix(2.1429,0,0,2.1429,-2393.34,-2470.99)">
	<text transform="matrix(0.4667 0 0 0.4667 1195.8546 1277.8234)" class="st0 st1 st2">AREA TW</text>
	<text transform="matrix(0.4667 0 0 0.4667 1339.4033 1277.8234)" class="st0 st1 st2">O</text>
</g>
<g transform="matrix(0.943763,0,0,0.943763,17.776,8.18002)">
	<g transform="matrix(1.15067,0,0,0.95337,-659.591,-466.149)">
		<path class="st3" d="M687,604.5c0.5-0.3,1.1-0.1,1.5,0.4c0.4,0.5,0.4,1.3,0.1,1.8c-5.2,9-16.3,28.3-19.2,33.5
			c-0.5,0.8-1.2,1.3-2,1.3c-5.6,0-28.1,0-39,0c-0.6,0-1.2-0.5-1.3-1.3c-0.1-0.7,0.2-1.5,0.7-1.8C641.1,630.8,675.1,611.4,687,604.5z
			"/>
	</g>
	<g transform="matrix(1.15067,0,0,0.95337,-659.637,-833.316)">
		<path class="st3" d="M642,920c0.4-0.9,1.1-1.5,1.8-1.6c0.8-0.2,1.6,0.2,2.2,0.8c8.2,9.6,34.5,40.5,42.8,50.2
			c0.6,0.7,0.8,1.6,0.7,2.6c-0.1,1-0.6,1.8-1.4,2.2c-14.4,8.5-73.9,43.3-88.9,52.1c-0.5,0.3-1.1,0.2-1.5-0.3
			c-0.4-0.5-0.5-1.2-0.2-1.8C605.1,1006.5,634.8,936.8,642,920z"/>
	</g>
</g>
<g transform="matrix(0.943763,0,0,0.943763,17.3037,2888.35)">
	<g transform="matrix(1.15067,0,0,0.95337,-659.591,-466.149)">
		<path class="st3" d="M731.6-2034.6c0.5-0.3,1.1-0.1,1.5,0.4c0.4,0.5,0.4,1.3,0.1,1.8c-5.2,9-16.3,28.3-19.2,33.5
			c-0.5,0.8-1.2,1.3-2,1.3c-5.6,0-28.1,0-39,0c-0.6,0-1.2-0.5-1.3-1.3c-0.1-0.7,0.2-1.5,0.7-1.8
			C685.6-2008.3,719.6-2027.7,731.6-2034.6z"/>
	</g>
	<g transform="matrix(1.15067,0,0,0.95337,-659.637,-833.316)">
		<path class="st3" d="M686.5-1719.1c0.4-0.9,1.1-1.5,1.8-1.6c0.8-0.2,1.6,0.2,2.2,0.8c8.2,9.6,34.5,40.5,42.8,50.2
			c0.6,0.7,0.8,1.6,0.7,2.6c-0.1,1-0.6,1.8-1.4,2.2c-14.4,8.5-73.9,43.3-88.9,52.1c-0.5,0.3-1.1,0.2-1.5-0.3
			c-0.4-0.5-0.5-1.2-0.2-1.8C649.7-1632.6,679.4-1702.3,686.5-1719.1z"/>
	</g>
</g>
<g transform="matrix(0.943763,0,0,0.943763,1044.91,2888.35)">
	<g transform="matrix(1.15067,0,0,0.95337,-659.591,-466.149)">
		<path class="st4" d="M-54.5-2034.6c0.5-0.3,1.1-0.1,1.5,0.4c0.4,0.5,0.4,1.3,0.1,1.8c-5.2,9-16.3,28.3-19.2,33.5
			c-0.5,0.8-1.2,1.3-2,1.3c-5.6,0-28.1,0-39,0c-0.6,0-1.2-0.5-1.3-1.3c-0.1-0.7,0.2-1.5,0.7-1.8
			C-100.4-2008.3-66.4-2027.7-54.5-2034.6z"/>
	</g>
	<g transform="matrix(1.15067,0,0,0.95337,-659.637,-833.316)">
		<path class="st4" d="M-99.5-1719.1c0.4-0.9,1.1-1.5,1.8-1.6c0.8-0.2,1.6,0.2,2.2,0.8c8.2,9.6,34.5,40.5,42.8,50.2
			c0.6,0.7,0.8,1.6,0.7,2.6c-0.1,1-0.6,1.8-1.4,2.2c-14.4,8.5-73.9,43.3-88.9,52.1c-0.5,0.3-1.1,0.2-1.5-0.3
			c-0.4-0.5-0.5-1.2-0.2-1.8C-136.4-1632.6-106.7-1702.3-99.5-1719.1z"/>
	</g>
</g>
<g transform="matrix(0.943763,0,0,0.943763,1950.1,2888.35)">
	<g transform="matrix(1.15067,0,0,0.95337,-659.591,-466.149)">
		<path class="st5" d="M-746.9-2034.6c0.5-0.3,1.1-0.1,1.5,0.4c0.4,0.5,0.4,1.3,0.1,1.8c-5.2,9-16.3,28.3-19.2,33.5
			c-0.5,0.8-1.2,1.3-2,1.3c-5.6,0-28.1,0-39,0c-0.6,0-1.2-0.5-1.3-1.3c-0.1-0.7,0.2-1.5,0.7-1.8
			C-792.9-2008.3-758.9-2027.7-746.9-2034.6z"/>
	</g>
	<g transform="matrix(1.15067,0,0,0.95337,-659.637,-833.316)">
		<path class="st5" d="M-791.9-1719.1c0.4-0.9,1.1-1.5,1.8-1.6c0.8-0.2,1.6,0.2,2.2,0.8c8.2,9.6,34.5,40.5,42.8,50.2
			c0.6,0.7,0.8,1.6,0.7,2.6c-0.1,1-0.6,1.8-1.4,2.2c-14.4,8.5-73.9,43.3-88.9,52.1c-0.5,0.3-1.1,0.2-1.5-0.3
			c-0.4-0.5-0.5-1.2-0.2-1.8C-828.8-1632.6-799.1-1702.3-791.9-1719.1z"/>
	</g>
</g>
<g transform="matrix(0.544686,0,0,0.544686,-125.33,-74.7901)">
	<g>
		
			<image style="overflow:visible;enable-background:new    ;" width="594" height="579" id="_Image1" xlink:href="571A0625F7950734.png"  transform="matrix(0.1693 0 0 0.1693 400.0002 674.7938)">
		</image>
	</g>
</g>
<g transform="matrix(0.785791,0,0,0.785791,-160.153,-139.844)">
	<g>
		
			<image style="overflow:visible;enable-background:new    ;" width="1063" height="1063" id="_Image2" xlink:href="571A0625F7950735.png"  transform="matrix(0.1693 0 0 0.1693 315.2834 681.4791)">
		</image>
	</g>
</g>
<g transform="matrix(0.733192,0,0,0.733192,-492.728,-2618.82)">
	<g>
		
			<image style="overflow:visible;enable-background:new    ;" width="430" height="423" id="_Image3" xlink:href="571A0625F7950733.png"  transform="matrix(0.1693 0 0 0.1693 798.1965 3864.9031)">
		</image>
	</g>
</g>
<g transform="matrix(2.1429,0,0,2.1429,-2393.34,-2010.33)">
	<text transform="matrix(0.4667 0 0 0.4667 1195.8546 1099.2482)" class="st0 st1 st2">AREA TW</text>
	<text transform="matrix(0.4667 0 0 0.4667 1339.4033 1099.2482)" class="st0 st1 st2">O</text>
</g>
<g transform="matrix(2.1429,0,0,2.1429,-2862.06,327.522)">
	<text transform="matrix(0.4667 0 0 0.4667 1377.5542 192.9781)" class="st0 st1 st2">AREA TW</text>
	<text transform="matrix(0.4667 0 0 0.4667 1521.103 192.9781)" class="st0 st1 st2">O</text>
</g>
<g transform="matrix(1.36369,0,0,1.36369,-821.352,-146.537)">
	<g transform="matrix(0.983399,0,0,0.983399,-12.8163,-1273.43)">
		<text transform="matrix(0.7457 0 0 0.7457 794.9237 1486.4047)" class="st0 st1 st6">AREA TW</text>
		<text transform="matrix(0.7457 0 0 0.7457 986.3204 1486.4047)" class="st0 st1 st6">O</text>
	</g>
	<g transform="matrix(1.03384,0,0,1.03384,-98.0854,-1141.25)">
		<text transform="matrix(0.7093 0 0 0.7093 837.1414 1323.2859)" class="st0 st1 st7">B</text>
		<text transform="matrix(0.7093 0 0 0.7093 863.1244 1323.2859)" class="st0 st1 st7">I</text>
		<text transform="matrix(0.7093 0 0 0.7093 873.518 1323.2859)" class="st0 st1 st7">O</text>
		<text transform="matrix(0.7093 0 0 0.7093 899.5447 1323.2859)" class="st0 st1 st7"> </text>
		<text transform="matrix(0.7093 0 0 0.7093 907.1877 1323.2859)" class="st0 st1 st7">F</text>
		<text transform="matrix(0.7093 0 0 0.7093 930.551 1323.2859)" class="st0 st1 st7">U</text>
		<text transform="matrix(0.7093 0 0 0.7093 956.9289 1323.2859)" class="st0 st1 st7">N</text>
		<text transform="matrix(0.7093 0 0 0.7093 984.6152 1323.2859)" class="st0 st1 st7">D</text>
	</g>
</g>
</svg>
